<mxfile host="app.diagrams.net" modified="2024-05-24T08:06:14.514Z" agent="Mozilla/5.0 (Windows NT 10.0; Win64; x64) AppleWebKit/537.36 (KHTML, like Gecko) Chrome/127.0.0.0 Safari/537.36" etag="ITo55KBSNlehWeVNfesO" version="24.4.7" type="github">
  <diagram name="第 1 页" id="dfqK8mmbEs_2lfWQiHWl">
    <mxGraphModel dx="1434" dy="746" grid="1" gridSize="10" guides="1" tooltips="1" connect="1" arrows="1" fold="1" page="1" pageScale="1" pageWidth="827" pageHeight="1169" math="0" shadow="0">
      <root>
        <mxCell id="0" />
        <mxCell id="1" parent="0" />
        <mxCell id="iXKEjrRT0Iqb4kzwW5TB-9" style="edgeStyle=orthogonalEdgeStyle;curved=1;rounded=0;orthogonalLoop=1;jettySize=auto;html=1;exitX=0.5;exitY=1;exitDx=0;exitDy=0;" edge="1" parent="1" source="iXKEjrRT0Iqb4kzwW5TB-1" target="iXKEjrRT0Iqb4kzwW5TB-2">
          <mxGeometry relative="1" as="geometry" />
        </mxCell>
        <mxCell id="iXKEjrRT0Iqb4kzwW5TB-1" value="登录页" style="ellipse;whiteSpace=wrap;html=1;" vertex="1" parent="1">
          <mxGeometry x="354" y="110" width="120" height="80" as="geometry" />
        </mxCell>
        <mxCell id="iXKEjrRT0Iqb4kzwW5TB-8" style="edgeStyle=orthogonalEdgeStyle;curved=1;rounded=0;orthogonalLoop=1;jettySize=auto;html=1;exitX=0;exitY=0.5;exitDx=0;exitDy=0;entryX=0.5;entryY=0;entryDx=0;entryDy=0;" edge="1" parent="1" source="iXKEjrRT0Iqb4kzwW5TB-2" target="iXKEjrRT0Iqb4kzwW5TB-4">
          <mxGeometry relative="1" as="geometry" />
        </mxCell>
        <mxCell id="iXKEjrRT0Iqb4kzwW5TB-2" value="个人中心" style="ellipse;whiteSpace=wrap;html=1;" vertex="1" parent="1">
          <mxGeometry x="354" y="260" width="120" height="80" as="geometry" />
        </mxCell>
        <mxCell id="iXKEjrRT0Iqb4kzwW5TB-4" value="医院总览" style="ellipse;whiteSpace=wrap;html=1;" vertex="1" parent="1">
          <mxGeometry x="10" y="360" width="120" height="80" as="geometry" />
        </mxCell>
      </root>
    </mxGraphModel>
  </diagram>
</mxfile>
